# xmcd
#
# Track frame offsets:
#	150
#	16534
#	32095
#	45010
#	61596
#	80351
#	95025
#	112342
#	126009
#	141159
#	156979
#	180909
#
# Disc length: 2800 seconds
#
# Revision: 0
# Processed by: cddbd v1.5.1PL0 Copyright (c) Steve Scherf et al.
# Submitted via: dBpowerAMP V4.0
#
DISCID=8b0aee0c
DTITLE=Travis Tritt - My Honk Tonk History
DYEAR=1900
DGENRE=
TTITLE0=Honky Tonk History
TTITLE1=Tonight I've Gone Too Far To Turn Around
TTITLE2=The Girls Gone Wild
TTITLE3=What You Say
TTITLE4=Circus Leaving Town
TTITLE5=Monkey Around
TTITLE6=I See Me
TTITLE7=When Good Ol Boy Go Bad
TTITLE8=We've Had It All
TTITLE9=It's All About The Money
TTITLE10=Small Doses
TTITLE11=When I'm Gone
EXTD=
EXTT0=
EXTT1=
EXTT2=
EXTT3=
EXTT4=
EXTT5=
EXTT6=
EXTT7=
EXTT8=
EXTT9=
EXTT10=
EXTT11=
PLAYORDER=
